<svg aria-hidden="true" style="width:0;height:0;position:absolute;overflow:hidden" xmlns="http://www.w3.org/2000/svg"><defs><symbol id="logo"><ellipse cx="25" cy="25.5" rx="24" ry="24.5" fill="#fff"/><path d="M18.51.88C6.94 4.38 0 13.49 0 25c0 9.4 4.83 17.62 12.78 21.72 4.12 2.1 4.73.6.9-2.3-2.71-2.2-3.22-3.2-3.22-6.91 0-2.6-.6-4.7-1.5-5.5-1.82-1.5-2.02-5.41-.2-6.81.7-.6 1.4-2.6 1.5-4.41.5-6.6 7.65-12.81 14.8-12.81 7.14 0 14.28 6.2 14.79 12.81.1 1.8.8 3.8 1.5 4.4 1.82 1.4 1.62 5.31-.2 6.81-.9.8-1.5 2.9-1.5 5.5 0 3.71-.5 4.71-3.23 6.92-4.22 3.3-3.01 4.5 1.72 1.6C44.78 41.93 49.7 33 49.7 25.1 49.7 9.29 33.2-3.53 18.5.88Z" fill="#D41443"/><path d="M19.82 12.5c-1.8.8-3.32 1.8-3.32 2.4 0 1.1 5.44 3.1 8.55 3.1 3.12 0 8.56-2 8.56-3.1 0-1.2-6.24-3.91-8.76-3.91-1 .1-3.32.7-5.03 1.5Zm51.82 5.2c-1.5.4-1.8 1.7-1.8 8.9v8.42h7.14l-.3-8.71c-.3-9.11-.71-9.81-5.04-8.61Zm11.78.5c-3.33 1.8-4.53 4-4.53 8.3 0 5.91 3.22 8.72 9.15 8.32 4.03-.3 4.43-.6 4.73-3.1.3-2.51.1-2.71-3.02-2.51-3.22.3-3.32.1-3.32-3.2 0-3.3.2-3.5 3.12-3.2 2.42.2 3.32-.2 3.73-1.7.2-1.01 0-2.41-.6-3.01-1.42-1.4-6.65-1.4-9.26.1Zm11.97.1c-.3.8-.4 4.7-.2 8.8l.3 7.42h6.54c6.04 0 6.54-.2 6.84-2.3.3-1.9-.1-2.2-3.22-2.2-2.01 0-3.62-.51-3.62-1.01 0-.6 1.4-1 3.02-1 2.31 0 3.02-.4 3.02-2s-.7-2-3.02-2c-1.61 0-3.02-.5-3.02-1 0-.6 1.3-1 2.92-1 2.82 0 4.73-2.21 3.52-4.11-.9-1.5-12.48-1.1-13.08.4Zm20.22-.3c-3.32 1.3-4.62 3.6-4.72 7.8-.1 7.21 2.81 9.72 10.36 9.02 2.92-.2 3.42-.7 3.42-2.8 0-2.2-.4-2.51-3.22-2.2-2.42.2-3.32-.11-3.82-1.71-.9-3.1 1-5.6 4.22-5.6 1.92 0 2.92-.6 3.12-1.91.7-3.2-4.42-4.7-9.36-2.6Zm12.39-.4c-.51.4-.81 4.5-.81 9.1v8.42l3.22-.3c2.51-.2 3.42-.9 3.92-2.8l.6-2.51.8 2.7c.61 2.3 1.32 2.8 3.93 2.8 4.33 0 4.83-.7 3.02-4.2-1.1-2.2-1.3-3.3-.5-4.1 1.3-1.3 1.4-5.71.2-7.61-1-1.6-13.08-2.9-14.39-1.5Zm8.24 5.4c0 1.1-.4 2-1 2-.5 0-1.01-.9-1.01-2s.5-2 1-2c.6 0 1.01.9 1.01 2Zm9.76-5.3c-.4.3-.7 4.4-.7 9v8.32h6.54c6.34 0 6.54-.1 6.54-2.5 0-2.1-.5-2.5-3.02-2.5-1.61 0-3.02-.51-3.02-1.01 0-.6 1.1-1 2.52-1 1.8 0 2.51-.5 2.51-2s-.7-2-2.51-2c-1.41 0-2.52-.5-2.52-1 0-.6 1.41-1 3.02-1 2.51 0 3.02-.4 3.02-2.51 0-2.4-.3-2.5-5.84-2.5-3.22 0-6.24.3-6.54.7Zm20.33-.1c-1.81.5-6.44 13.81-5.54 16.02.8 2 5.34 1.8 6.54-.3.9-1.7 1.01-1.7 2.82 0 2.32 2 7.35 2.3 7.35.4 0-.6-1.01-4.61-2.32-8.71-2.01-6.61-2.61-7.51-4.73-7.71-1.4 0-3.22.1-4.12.3Zm2.81 9.1c-.3 1-.5.4-.5-1.2 0-1.7.2-2.4.5-1.8.2.7.2 2.1 0 3Zm11.68-9c-.9.3-1.31 3.1-1.31 8.9v8.42h2.92c2.51 0 3.01-.5 3.42-2.8.4-2.61.4-2.61 1.2-.5.4 1.3 1.41 2.3 2.12 2.3.8 0 1.91-1 2.41-2.3.8-2.11.9-2.11.9.6.11 2.5.41 2.8 3.23 2.5l3.12-.3.1-8.31c.2-7.71.1-8.31-2.01-8.81-3.22-.8-5.94 1.1-6.85 4.8l-.7 3.3-1.1-3.5c-1.42-4.7-3.53-5.9-7.45-4.3Zm-166.73 1c-.3.4-.6 1.7-.6 3 0 2.3.1 2.3 11.56 2.3 11.48 0 11.58 0 11.58-2.3 0-3.4-.91-3.8-4.13-2.2-3.62 1.9-11.27 1.9-14.9 0-1.6-.8-3.11-1.1-3.51-.8Zm-2.92 8.9c-1.61 1.71 1.1 2.41 8.95 2.41h8.46v3.5c0 1.9.5 3.5 1 3.5.6 0 1-1.5 1-3.4 0-3.3.21-3.5 4.03-3.8 2.22-.2 4.03-.8 4.03-1.3 0-1.1-26.36-2-27.47-.9Z" fill="#D41443"/><path d="M13.48 36.42c0 5.5 1.91 6.6 11.57 6.6s11.58-1.1 11.58-6.6c0-2.4-.5-3.4-1.51-3.4-.9 0-1.51.9-1.51 2.4 0 5.6-7.65 6.1-8.76.6-.5-2.9-.8-3-5.93-3h-5.44v3.4Zm6.24 11.31c.6 3.2 10.87 2.9 10.87-.2 0-1.1-1.3-1.5-5.64-1.5-4.72 0-5.53.3-5.23 1.7Z" fill="#D41443"/></symbol><symbol id="icon-menu" viewBox="0 0 448 512"><path d="M0 96c0-17.67 14.33-32 32-32h384c17.7 0 32 14.33 32 32 0 17.7-14.3 32-32 32H32c-17.67 0-32-14.3-32-32zm0 160c0-17.7 14.33-32 32-32h384c17.7 0 32 14.3 32 32s-14.3 32-32 32H32c-17.67 0-32-14.3-32-32zm416 192H32c-17.67 0-32-14.3-32-32s14.33-32 32-32h384c17.7 0 32 14.3 32 32s-14.3 32-32 32z"/></symbol><symbol id="icon-cross" viewBox="0 0 32 32"><path stroke-width="2" d="m2.518 2 26.963 28M2 29.481 30 2.518"/></symbol><symbol id="icon-phone" viewBox="0 0 20 32"><path d="M17 0H3C1.346 0 0 1.346 0 3v26c0 1.654 1.346 3 3 3h14c1.654 0 3-1.346 3-3V3c0-1.654-1.346-3-3-3zM3 2h14a1 1 0 0 1 1 1v21H2V3a1 1 0 0 1 1-1zm14 28H3a1 1 0 0 1-1-1v-3h16v3a1 1 0 0 1-1 1z"/><path d="M4.708 27.478a.889.889 0 0 1 .001 1.319l-.001.001a1.048 1.048 0 0 1-1.417 0l.001.001a.889.889 0 0 1-.001-1.319l.001-.001a1.048 1.048 0 0 1 1.417 0l-.001-.001z"/></symbol><symbol id="icon-envelope" viewBox="0 0 43 32"><path d="M38.667 0H4C1.795 0 0 1.795 0 4v24c0 2.205 1.795 4 4 4h34.667c2.205 0 4-1.795 4-4V4c0-2.205-1.795-4-4-4zm0 2.667c.181 0 .355.037.512.104L21.334 18.238 3.489 2.771c.151-.065.327-.104.512-.104h34.667zm0 26.666H4A1.333 1.333 0 0 1 2.667 28V5.587l17.792 15.421c.233.203.539.327.875.327s.642-.124.876-.328l-.002.001L40 5.587V28c0 .736-.597 1.333-1.333 1.333z"/></symbol><symbol id="narrow-right-white" viewBox="0 0 6 10"><path d="m1 1 3.61 4L1 9" stroke="#fff" stroke-width="2" stroke-linecap="round" stroke-linejoin="round"/></symbol><symbol id="narrow-right-red" viewBox="0 0 320 512"><path d="M96 480c-8.188 0-16.38-3.125-22.62-9.375-12.5-12.5-12.5-32.75 0-45.25L242.8 256 73.38 86.63c-12.5-12.5-12.5-32.75 0-45.25s32.75-12.5 45.25 0l192 192c12.5 12.5 12.5 32.75 0 45.25l-192 192C112.4 476.9 104.2 480 96 480z"/></symbol><symbol id="icon-close" viewBox="0 0 18 18"><path d="M15 4.108 13.892 3 9.5 7.392 5.108 3 4 4.108 8.392 8.5 4 12.892 5.108 14 9.5 9.608 13.892 14 15 12.892 10.608 8.5 15 4.108Z"/></symbol><symbol id="icon-facebook" viewBox="0 0 16 32"><path fill="#fff" style="fill:var(--color1,#fff)" d="M14.266 15.97H10.09v15.39H3.763V15.97H.754v-5.409h3.009v-3.5c0-2.503 1.182-6.422 6.384-6.422l4.687.02v5.25h-3.401c-.558 0-1.342.28-1.342 1.474v3.183h4.729l-.553 5.403z"/></symbol><symbol id="icon-github" viewBox="0 0 32 32"><path fill="#fff" style="fill:var(--color1,#fff)" d="M16 .941C7.729.941.941 7.729.941 16c0 7.058 4.953 13.47 11.529 15.059v-4.982c-.652.143-1.251.147-1.915-.049-.89-.263-1.613-.855-2.15-1.759-.342-.577-.949-1.203-1.581-1.157l-.155-1.758c1.368-.117 2.551.833 3.254 2.014.312.525.671.832 1.132.968.446.131.924.068 1.481-.129.14-1.116.651-1.534 1.037-2.122v-.001c-3.922-.585-5.486-2.666-6.106-4.308-.822-2.181-.381-4.905 1.073-6.627.028-.034.079-.121.059-.183-.667-2.014.146-3.679.176-3.856.769.228.894-.229 3.342 1.258l.423.254c.177.105.121.045.298.032a12.77 12.77 0 0 1 3.16-.445 12.84 12.84 0 0 1 3.204.456l.137.014c-.012-.002.037-.009.12-.058 3.057-1.852 2.947-1.247 3.767-1.513.03.177.831 1.87.172 3.858-.089.274 2.65 2.782 1.132 6.809-.62 1.643-2.183 3.724-6.106 4.309v.001c.503.766 1.107 1.174 1.104 2.755v6.219C26.105 29.47 31.057 23.058 31.057 16 31.057 7.729 24.27.941 15.998.941z"/></symbol><symbol id="icon-telegram" viewBox="0 0 40 32"><path fill="#fff" style="fill:var(--color1,#fff)" d="m16.205 20.751-.635 8.339c.909 0 1.302-.364 1.774-.802l4.261-3.801 8.829 6.035c1.619.842 2.76.399 3.197-1.39l5.797-25.346c.514-2.234-.866-3.108-2.443-2.56L2.92 13.398c-2.325.842-2.29 2.052-.395 2.6l8.709 2.528L31.463 6.712c.952-.588 1.818-.263 1.106.326L16.205 20.751z"/></symbol><symbol id="icon-Group" viewBox="0 0 139 32"><path d="M85.333 16c0 8.837-7.163 16-16 16s-16-7.163-16-16 7.163-16 16-16 16 7.163 16 16zM32 16c0 8.837-7.163 16-16 16S0 24.837 0 16 7.163 0 16 0s16 7.163 16 16zM138.667 16c0 8.837-7.163 16-16 16s-16-7.163-16-16 7.163-16 16-16 16 7.163 16 16z"/></symbol><symbol id="icon-arrow-right" viewBox="0 0 32 32"><path d="m19.414 27.414 10-10a2 2 0 0 0 0-2.828l-10-10a2 2 0 1 0-2.828 2.828L23.172 14H4a2 2 0 1 0 0 4h19.172l-6.586 6.586c-.39.39-.586.902-.586 1.414s.195 1.024.586 1.414a2 2 0 0 0 2.828 0z"/></symbol><symbol id="cream" viewBox="0 0 448 512"><path d="M96.06 288.3H351.9l-99.3 205.5c-2.5 5.4-6.6 10-12.5 13.3-4.2 3.2-10.1 4.9-16.1 4.9-6.9 0-11.9-1.7-17-4.9-5.9-3.3-9.1-7.9-11.6-13.3L96.06 288.3zM386.3 164c5.8 2.4 11.1 5.9 15.6 10.4 4.4 4.4 8 9.7 10.4 15.5 2.4 5.8 2.8 11.2 3.7 18.4 0 6.2-1.2 12.5-3.6 18.3-3.3 5.8-5.9 11.1-10.4 15.6-4.4 4.4-9.7 8-15.5 10.4-5.8 2.4-12.1 3.7-18.4 3.7H79.88c-12.72 0-24.92-5.1-33.9-14.1-8.98-9-14.01-22.1-13.98-33.9.03-12.8 5.1-24.9 14.12-33.9s21.23-14 33.95-14h.99c-.66-5.5-1-11-1.02-16.6 0-38.1 15.16-74.69 42.16-101.67C149.2 15.15 185.8 0 223.1 0c39 0 75.6 15.15 102.6 42.13 27 26.98 42.2 63.57 42.2 101.67 0 5.6-.3 11.1-1 16.6h1c6.3 0 12.6 1.2 18.4 3.6z"/></symbol><symbol id="icon-arrow-left" viewBox="0 0 32 32"><path d="m12.586 27.414-10-10a2 2 0 0 1 0-2.828l10-10a2 2 0 1 1 2.828 2.828L8.828 14H28a2 2 0 1 1 0 4H8.828l6.586 6.586c.39.39.586.902.586 1.414s-.195 1.024-.586 1.414a2 2 0 0 1-2.828 0z"/></symbol></defs></svg>