<svg aria-hidden="true" style="position:absolute;width:0;height:0;overflow:hidden" xmlns="http://www.w3.org/2000/svg">
    <defs>
        <symbol id="icon-person" viewBox="0 0 32 32">
            <path
                d="M16 16c2.947 0 5.333-2.387 5.333-5.333S18.946 5.334 16 5.334c-2.947 0-5.333 2.387-5.333 5.333S13.054 16 16 16zm0 2.667c-3.56 0-10.667 1.787-10.667 5.333v1.333c0 .733.6 1.333 1.333 1.333h18.667c.733 0 1.333-.6 1.333-1.333V24c0-3.547-7.107-5.333-10.667-5.333z" />
        </symbol>
        <symbol id="icon-phone" viewBox="0 0 32 32">
            <path
                d="m24.882 19.773-3.268-.373a2.561 2.561 0 0 0-2.11.733L17.137 22.5a19.357 19.357 0 0 1-8.478-8.478l2.38-2.38a2.561 2.561 0 0 0 .733-2.11l-.373-3.242a2.575 2.575 0 0 0-2.56-2.277H6.613c-1.454 0-2.663 1.209-2.573 2.663.682 10.987 9.469 19.761 20.443 20.443 1.454.09 2.663-1.119 2.663-2.573V22.32a2.55 2.55 0 0 0-2.264-2.547z" />
        </symbol>
        <symbol id="icon-email" viewBox="0 0 32 32">
            <path
                d="M26.667 5.333H5.334A2.663 2.663 0 0 0 2.681 8l-.013 16c0 1.467 1.2 2.667 2.667 2.667h21.333c1.467 0 2.667-1.2 2.667-2.667V8c0-1.467-1.2-2.667-2.667-2.667zM26.133 11l-9.427 5.893a1.346 1.346 0 0 1-1.413 0L5.866 11a1.132 1.132 0 1 1 1.2-1.92l8.933 5.587 8.933-5.587a1.132 1.132 0 1 1 1.2 1.92z" />
        </symbol>

        <symbol id="icon-custom-checkbox" viewBox="0 0 32 32">
            <path
                d="M28.444 4.333v23.333H3.555V4.333h24.889zm0-3.333H3.555C1.599 1-.001 2.5-.001 4.333v23.333c0 1.833 1.6 3.333 3.556 3.333h24.889c1.956 0 3.556-1.5 3.556-3.333V4.333C32 2.5 30.4 1 28.444 1z" />
        </symbol>
        <symbol id="icon-custom-mark" viewBox="0 0 32 32">
            <path fill="#fff" style="fill:var(--color2, #fff);stroke:var(--color2, #fff)" stroke="#fff"
                stroke-width=".492"
                d="m4.817 15.389-.169-.162-2.544 2.41 8.962 8.55L29.895 8.225l-2.527-2.411L11.066 21.35l-6.249-5.962z" />
        </symbol>

        <symbol id="icon-check" viewBox="0 0 32 32">
            <path fill="#2196f3" style="fill:var(--color1, #2196f3)"
                d="M4 1h24a4 4 0 0 1 4 4v22a4 4 0 0 1-4 4H4a4 4 0 0 1-4-4V5a4 4 0 0 1 4-4z" />
            <path fill="#fff" style="fill:var(--color2, #fff);stroke:var(--color2, #fff)" stroke="#fff"
                stroke-width=".4"
                d="m7.914 16.503-.138-.131-2.067 1.958 7.282 6.947 15.298-14.594-2.053-1.959-13.245 12.623-5.077-4.844z" />
        </symbol>

        <symbol id="icon-send" viewBox="0 0 32 32">
            <path fill="#fff" style="fill: var(--color1, #fff)"
                d="M32 0l-32 18 10.227 3.788 15.773-14.788-11.998 16.186 0.010 0.004-0.012-0.004v8.814l5.735-6.691 7.265 2.691 5-28z">
            </path>
        </symbol>
    </defs>
</svg>